<svg width="500" height="500" viewBox="0 0 500 500" fill="none" xmlns="http://www.w3.org/2000/svg">
<g clip-path="url(#clip0_3_11)">
<path fill-rule="evenodd" clip-rule="evenodd" d="M406.25 0H93.75C41.9737 0 0 41.9737 0 93.75V406.25C0 458.026 41.9737 500 93.75 500H406.25C458.026 500 500 458.026 500 406.25V93.75C500 41.9737 458.026 0 406.25 0ZM393.553 269.276H346.776V442.434H268.618V269.276H238.289V210.921H268.618V173.75C268.618 125.066 288.882 96.1184 346.25 96.1184H404.408V154.211H370.592C348.224 154.211 346.776 162.566 346.776 178.092L346.711 210.855H399.868L393.487 269.211L393.553 269.276Z" fill="#2AE529"/>
</g>
<defs>
<clipPath id="clip0_3_11">
<rect width="500" height="500" fill="white"/>
</clipPath>
</defs>
</svg>
