<svg width="500" height="500" viewBox="0 0 500 500" fill="none" xmlns="http://www.w3.org/2000/svg">
<path d="M166.68 250C166.68 203.978 203.978 166.66 250 166.66C296.022 166.66 333.34 203.978 333.34 250C333.34 296.022 296.022 333.34 250 333.34C203.978 333.34 166.68 296.022 166.68 250ZM121.628 250C121.628 320.901 179.099 378.372 250 378.372C320.901 378.372 378.372 320.901 378.372 250C378.372 179.099 320.901 121.628 250 121.628C179.099 121.628 121.628 179.099 121.628 250ZM353.453 116.539C353.453 133.098 366.882 146.547 383.461 146.547C400.02 146.547 413.469 133.098 413.469 116.539C413.469 99.9798 400.04 86.5509 383.461 86.5509C366.882 86.5509 353.453 99.9798 353.453 116.539ZM148.99 453.494C124.616 452.383 111.369 448.324 102.565 444.891C90.8926 440.347 82.5727 434.935 73.8086 426.191C65.0646 417.448 59.6325 409.128 55.109 397.456C51.6761 388.651 47.6171 375.404 46.5065 351.03C45.2948 324.677 45.0525 316.761 45.0525 250C45.0525 183.239 45.315 175.343 46.5065 148.97C47.6171 124.596 51.6963 111.369 55.109 102.544C59.6527 90.8724 65.0646 82.5525 73.8086 73.7884C82.5525 65.0444 90.8724 59.6123 102.565 55.0889C111.369 51.6559 124.616 47.5969 148.99 46.4863C175.343 45.2746 183.259 45.0323 250 45.0323C316.761 45.0323 324.657 45.2948 351.03 46.4863C375.404 47.5969 388.631 51.6761 397.456 55.0889C409.128 59.6123 417.448 65.0444 426.212 73.7884C434.956 82.5323 440.368 90.8724 444.911 102.544C448.344 111.349 452.403 124.596 453.514 148.97C454.725 175.343 454.968 183.239 454.968 250C454.968 316.741 454.725 324.657 453.514 351.03C452.403 375.404 448.324 388.651 444.911 397.456C440.368 409.128 434.956 417.448 426.212 426.191C417.468 434.935 409.128 440.347 397.456 444.891C388.651 448.324 375.404 452.383 351.03 453.494C324.677 454.705 316.761 454.947 250 454.947C183.259 454.947 175.343 454.705 148.99 453.494V453.494ZM146.931 1.51454C120.315 2.72617 102.141 6.94669 86.248 13.126C69.8102 19.5073 55.8764 28.0695 41.9628 41.9628C28.0695 55.8562 19.5073 69.79 13.126 86.248C6.94669 102.141 2.72617 120.315 1.51454 146.931C0.282714 173.586 0 182.108 0 250C0 317.892 0.282714 326.414 1.51454 353.069C2.72617 379.685 6.94669 397.859 13.126 413.752C19.5073 430.19 28.0493 444.144 41.9628 458.037C55.8562 471.931 69.79 480.473 86.248 486.874C102.161 493.053 120.315 497.274 146.931 498.485C173.607 499.697 182.108 500 250 500C317.912 500 326.414 499.717 353.069 498.485C379.685 497.274 397.859 493.053 413.752 486.874C430.19 480.473 444.124 471.931 458.037 458.037C471.931 444.144 480.473 430.19 486.874 413.752C493.053 397.859 497.294 379.685 498.485 353.069C499.697 326.393 499.98 317.892 499.98 250C499.98 182.108 499.697 173.586 498.485 146.931C497.274 120.315 493.053 102.141 486.874 86.248C480.473 69.8102 471.931 55.8764 458.037 41.9628C444.144 28.0695 430.19 19.5073 413.772 13.126C397.859 6.94669 379.685 2.70598 353.09 1.51454C326.434 0.302908 317.912 0 250.02 0C182.108 0 173.607 0.282714 146.931 1.51454" fill="#2AE529"/>
</svg>
