<svg width="615" height="500" viewBox="0 0 615 500" fill="none" xmlns="http://www.w3.org/2000/svg">
<path d="M193.353 500C425.316 500 552.168 307.741 552.168 141.021C552.168 135.56 552.057 130.125 551.811 124.713C576.493 106.845 597.795 84.7213 614.717 59.3796C592.12 69.4301 567.805 76.1945 542.296 79.2444C568.333 63.6252 588.321 38.915 597.752 9.46063C572.997 24.1527 545.914 34.5099 517.673 40.0857C494.66 15.5616 461.897 0.223511 425.619 0.223511C355.976 0.223511 299.502 56.7257 299.502 126.373C299.502 136.275 300.61 145.903 302.774 155.142C197.961 149.865 105.02 99.6603 42.8198 23.3207C31.6169 42.575 25.7244 64.458 25.744 86.7348C25.744 130.508 48.0071 169.149 81.864 191.757C61.8372 191.145 42.2501 185.733 24.7495 175.976C24.7307 176.506 24.7307 177.022 24.7307 177.588C24.7307 238.689 68.2 289.705 125.904 301.265C115.067 304.218 103.883 305.711 92.6507 305.704C84.5388 305.704 76.633 304.906 68.9496 303.43C85.0048 353.56 131.56 390.04 186.757 391.06C143.594 424.906 89.2213 445.066 30.1266 445.066C20.0738 445.074 10.0293 444.491 0.045166 443.318C55.8579 479.108 122.13 499.991 193.359 499.991" fill="#2AE529"/>
</svg>
